<?xml version="1.0" encoding="UTF-8" standalone="no"?>
<svg
   xmlns:dc="http://purl.org/dc/elements/1.1/"
   xmlns:cc="http://creativecommons.org/ns#"
   xmlns:rdf="http://www.w3.org/1999/02/22-rdf-syntax-ns#"
   xmlns:svg="http://www.w3.org/2000/svg"
   xmlns="http://www.w3.org/2000/svg"
   xmlns:sodipodi="http://sodipodi.sourceforge.net/DTD/sodipodi-0.dtd"
   xmlns:inkscape="http://www.inkscape.org/namespaces/inkscape"
   sodipodi:docname="logo-prod.svg"
   inkscape:version="1.0 (4035a4f, 2020-05-01)"
   id="svg8"
   version="1.1"
   viewBox="0 0 144.17548 23.209978"
   height="23.209978mm"
   width="144.17548mm">
  <defs
     id="defs2">
    <rect
       id="rect835"
       height="25.702381"
       width="143.63095"
       y="24.190475"
       x="21.166668" />
  </defs>
  <sodipodi:namedview
     fit-margin-bottom="0"
     fit-margin-right="0"
     fit-margin-left="0"
     fit-margin-top="0"
     inkscape:window-maximized="0"
     inkscape:window-y="25"
     inkscape:window-x="188"
     inkscape:window-height="758"
     inkscape:window-width="1252"
     showgrid="false"
     inkscape:document-rotation="0"
     inkscape:current-layer="layer1"
     inkscape:document-units="mm"
     inkscape:cy="43.86136"
     inkscape:cx="272.4576"
     inkscape:zoom="1.3066253"
     inkscape:pageshadow="2"
     inkscape:pageopacity="0.0"
     borderopacity="1.0"
     bordercolor="#666666"
     pagecolor="#ffffff"
     id="base" />
  <metadata
     id="metadata5">
    <rdf:RDF>
      <cc:Work
         rdf:about="">
        <dc:format>image/svg+xml</dc:format>
        <dc:type
           rdf:resource="http://purl.org/dc/dcmitype/StillImage" />
        <dc:title></dc:title>
      </cc:Work>
    </rdf:RDF>
  </metadata>
  <g
     transform="translate(-20.19517,-26.198179)"
     id="layer1"
     inkscape:groupmode="layer"
     inkscape:label="Layer 1">
    <g
       style="font-style:normal;font-variant:normal;font-weight:normal;font-stretch:normal;font-size:22.5778px;line-height:1.25;font-family:MonteCarlo;-inkscape-font-specification:MonteCarlo;white-space:pre;shape-inside:url(#rect835);fill:#000000;fill-opacity:1;stroke:none"
       id="text833"
       aria-label="Michael Fitzgerald">
      <path
         id="path877"
         style="font-style:normal;font-variant:normal;font-weight:normal;font-stretch:normal;font-size:22.5778px;line-height:1.25;font-family:MonteCarlo;-inkscape-font-specification:MonteCarlo;white-space:pre;shape-inside:url(#rect835);fill:#000000;fill-opacity:1;stroke:none"
         d="m 22.069128,45.840861 q -0.248356,0 -0.699912,-0.06773 -0.451556,-0.04516 -0.812801,-0.270934 -0.361245,-0.225778 -0.361245,-0.677334 0,-0.248356 0.135467,-0.451556 0.112889,-0.112889 0.2032,-0.135467 0.06773,0 0.04516,0.112889 -0.09031,0.338667 0.225778,0.632179 0.293511,0.316089 0.6096,0.4064 0.361245,0.09031 0.767646,0.09031 0.925689,0 1.693335,-0.474134 0.767645,-0.451556 1.377246,-1.174045 0.632178,-0.699912 1.12889,-1.422402 1.151467,-1.693335 2.077157,-3.476981 0.92569,-1.806224 1.873958,-3.58987 0.948267,-1.783647 2.122313,-3.431826 0.383823,-0.541867 0.948268,-1.219201 0.564445,-0.699912 1.241779,-1.332091 0.677334,-0.632178 1.399823,-0.993423 -0.293511,0 -0.496711,-0.02258 -0.203201,-0.02258 -0.677334,-0.04515 -0.880535,-0.06773 -2.032002,-0.06773 -0.632179,0 -1.241779,0.02258 -0.587023,0 -1.106313,0.04516 -1.851379,0.112889 -3.702759,0.699912 -1.828802,0.587022 -3.138314,1.783646 -0.767646,0.699912 -1.264357,1.580446 -0.496712,0.880534 -0.496712,1.738491 0,0.970845 0.51929,1.399823 0.541867,0.406401 1.264357,0.406401 0.564445,0 1.12889,-0.203201 1.106312,-0.383822 1.806224,-1.354668 0.722489,-0.993423 0.632178,-2.212624 -0.02258,-0.2032 -0.09031,-0.406401 -0.06773,-0.2032 -0.180623,-0.270933 -0.09031,-0.06773 -0.09031,-0.135467 0.02258,-0.06773 0.135467,-0.06773 0.496712,0.04516 0.677334,0.564445 0.2032,0.496711 0.2032,0.948267 0,0.699912 -0.361245,1.354668 -0.361244,0.632179 -0.948267,1.12889 -0.564445,0.474134 -1.219201,0.72249 -0.699912,0.270934 -1.490135,0.270934 -1.038579,0 -1.828802,-0.587023 -0.767645,-0.587023 -0.767645,-1.919113 0,-0.993423 0.474133,-1.873958 0.496712,-0.880534 1.196624,-1.580446 1.512713,-1.490135 3.499559,-2.032002 2.009424,-0.541867 4.086582,-0.541867 1.625602,0 3.251203,0.180622 1.625602,0.158045 3.228626,0.158045 h 0.587023 q 0.112889,0.02258 0.2032,0.09031 0.112889,0.04516 0.06773,0.158045 0,0.135467 -0.158044,0.135467 -0.31609,0 -0.496712,0.09031 -0.474134,0.158044 -0.812801,0.587023 -0.338667,0.4064 -0.654756,0.993423 -0.428978,0.767645 -0.51929,1.806224 -0.06773,1.016001 -0.09031,1.873957 -0.02258,1.196624 -0.09031,2.483558 -0.04516,1.286935 -0.383823,2.528714 -0.248355,0.970846 -0.745067,1.828802 -0.474134,0.857956 -1.241779,1.557868 0.587023,-0.225778 1.174046,-0.857956 0.587022,-0.632179 1.106312,-1.377246 0.541867,-0.745067 0.880534,-1.264357 0.970846,-1.490135 2.032002,-3.273781 1.083735,-1.783646 2.25778,-3.522137 1.174046,-1.761068 2.438403,-3.115736 1.106312,-1.196624 2.167469,-1.738491 1.083734,-0.541867 1.964268,-0.541867 0.767645,0 1.332091,0.383822 0.564445,0.361245 0.790223,1.038579 0,0.02258 0,0.04516 0.02258,0 0.02258,0.02258 0,0.158044 -0.158044,0.180622 -0.158045,0.02258 -0.2032,-0.04516 -0.203201,-0.925689 -1.174046,-0.925689 -0.632179,0 -1.557868,0.496711 -0.92569,0.496712 -2.099736,1.625602 -1.219201,1.174045 -2.415825,2.777069 -1.196623,1.603024 -2.348091,3.296359 -1.12889,1.693335 -2.25778,3.18347 -0.4064,0.541867 -1.038579,1.309513 -0.6096,0.767645 -1.354668,1.53529 -0.745067,0.745067 -1.512712,1.241779 -0.767646,0.474134 -1.467557,0.428978 -0.135467,0 -0.158045,-0.09031 0,-0.09031 0.112889,-0.158045 0.767645,-0.541867 1.241779,-1.444979 0.474134,-0.903112 0.767645,-1.964268 0.383823,-1.467558 0.496712,-2.98027 0.135467,-1.512713 0.338667,-3.025425 0.112889,-0.699912 0.270933,-1.467558 0.180623,-0.790223 0.541868,-1.422401 0.293511,-0.519289 0.812801,-1.12889 0.519289,-0.609601 1.151467,-0.880534 -0.383822,-0.09031 -0.880534,0.270933 -0.474134,0.361245 -0.948268,0.948268 -0.474133,0.564445 -0.857956,1.106312 -0.361245,0.541867 -0.519289,0.790223 -1.083735,1.715913 -1.986847,3.589871 -0.880534,1.873957 -1.806224,3.702759 -0.92569,1.828802 -2.144891,3.454403 -0.654756,0.880535 -1.490135,1.670758 -0.835378,0.812801 -1.783646,1.264357 -0.564445,0.293511 -1.174046,0.4064 -0.587023,0.112889 -1.174045,0.112889 z M 40.379724,44.10237 q -0.857956,0 -1.377246,-0.541867 -0.496711,-0.541867 -0.496711,-1.603024 0.02258,-1.061156 0.361244,-2.190046 0.361245,-1.12889 0.903112,-2.235203 0.564445,-1.12889 1.151468,-2.144891 1.332091,-2.280358 2.664181,-4.041426 1.354668,-1.761069 2.190046,-2.957692 0.06773,-0.112889 0.248356,-0.09031 0.180623,0 0.09031,0.112889 -0.903112,1.174045 -1.828801,2.889958 -0.903112,1.693335 -1.873958,3.657604 -0.158044,0.338667 -0.496711,1.106312 -0.31609,0.745068 -0.699912,1.715913 -0.361245,0.970846 -0.699912,1.941691 -0.338667,0.948268 -0.51929,1.693335 -0.06773,0.293511 -0.112889,0.564445 -0.04516,0.248356 -0.04516,0.496712 0,0.541867 0.225778,0.857956 0.248356,0.338667 0.745067,0.338667 0.51929,0 1.106313,-0.496712 0.587022,-0.474133 1.151467,-1.174045 0.496712,-0.587023 0.903112,-1.241779 0.428979,-0.654756 0.699912,-1.174046 0.112889,-0.135467 0.158045,-0.135467 0.06773,0 0.06773,0.112889 0,0.135467 -0.09031,0.31609 -0.270934,0.519289 -0.72249,1.219201 -0.451556,0.677334 -1.016001,1.309512 -0.632178,0.699912 -1.33209,1.196624 -0.699912,0.496711 -1.354668,0.496711 z" />
      <path
         id="path879"
         style="font-style:normal;font-variant:normal;font-weight:normal;font-stretch:normal;font-size:22.5778px;line-height:1.25;font-family:MonteCarlo;-inkscape-font-specification:MonteCarlo;white-space:pre;shape-inside:url(#rect835);fill:#000000;fill-opacity:1;stroke:none"
         d="m 45.385293,43.086369 q -0.632178,0 -0.92569,-0.4064 -0.293511,-0.428978 -0.293511,-1.038579 0,-0.180622 0.02258,-0.361245 0.04516,-0.2032 0.09031,-0.4064 0.248356,-0.903112 0.767645,-2.009424 0.541867,-1.128891 1.038579,-2.009425 0.293511,-0.496711 0.541867,-0.699912 0.248356,-0.225778 0.541867,-0.316089 0.293512,-0.112889 0.699912,-0.248356 0.112889,-0.04516 0.225778,-0.06773 0.112889,-0.02258 0.248356,-0.04516 -0.451556,0.451556 -0.92569,1.083735 -0.451556,0.632178 -0.993423,1.738491 -0.293511,0.587022 -0.587023,1.309512 -0.270934,0.72249 -0.474134,1.354668 -0.2032,0.632178 -0.225778,0.993423 -0.02258,0.428978 0.112889,0.609601 0.135467,0.180622 0.361245,0.180622 0.383823,0 0.72249,-0.270933 0.361245,-0.270934 0.632178,-0.564445 0.496712,-0.564445 0.92569,-1.241779 0.451556,-0.677334 0.880534,-1.44498 0.06773,-0.09031 0.112889,-0.09031 0.09031,0 0.09031,0.135467 0,0.112889 -0.04516,0.180622 -0.406401,0.745068 -0.857957,1.490135 -0.451556,0.745068 -1.106312,1.399824 -0.293511,0.293511 -0.699912,0.519289 -0.383822,0.225778 -0.880534,0.225778 z m 2.754492,-8.873075 q -0.248356,0 -0.428978,-0.180623 -0.158045,-0.180622 -0.158045,-0.428978 0,-0.316089 0.248356,-0.564445 0.270933,-0.248356 0.587023,-0.293511 0.248355,0 0.4064,0.180622 0.180622,0.158045 0.180622,0.428978 0,0.293512 -0.248355,0.587023 -0.248356,0.270934 -0.587023,0.270934 z" />
      <path
         id="path881"
         style="font-style:normal;font-variant:normal;font-weight:normal;font-stretch:normal;font-size:22.5778px;line-height:1.25;font-family:MonteCarlo;-inkscape-font-specification:MonteCarlo;white-space:pre;shape-inside:url(#rect835);fill:#000000;fill-opacity:1;stroke:none"
         d="m 51.252699,43.154103 q -1.286934,0 -2.009424,-0.72249 -0.699912,-0.745067 -0.699912,-1.919113 0,-0.428978 0.09031,-0.880534 0.09031,-0.474134 0.293511,-0.970846 0.338667,-0.812801 0.880534,-1.512712 0.541867,-0.72249 1.286935,-1.174046 0.767645,-0.451556 1.670757,-0.451556 0.677334,0 1.038579,0.316089 0.383823,0.316089 0.383823,0.880534 0,0.180623 -0.04516,0.383823 -0.02258,0.2032 -0.135467,0.451556 -0.158044,0.4064 -0.4064,0.72249 -0.248356,0.316089 -0.564445,0.496711 -0.158045,0.09031 -0.361245,0.09031 -0.158045,0 -0.293511,-0.09031 -0.135467,-0.09031 -0.135467,-0.293511 0,-0.361245 0.383822,-0.767645 0.406401,-0.428979 1.038579,-0.451556 0.112889,-0.293512 0.112889,-0.51929 0,-0.361245 -0.225778,-0.6096 -0.225778,-0.270934 -0.699912,-0.270934 -0.587022,0 -1.151468,0.451556 -0.564445,0.428978 -1.016001,1.151468 -0.428978,0.699912 -0.699911,1.490135 -0.31609,0.903112 -0.31609,1.73849 0,0.880535 0.406401,1.490135 0.4064,0.609601 1.354668,0.609601 0.993423,0 1.693335,-0.51929 0.72249,-0.541867 1.264357,-1.309512 0.541867,-0.790223 0.948267,-1.512713 0.04516,-0.06773 0.09031,-0.06773 0.09031,0 0.09031,0.180622 0,0.112889 -0.06773,0.248356 -0.428978,0.767645 -0.993423,1.535291 -0.541867,0.767645 -1.33209,1.286934 -0.767645,0.51929 -1.873958,0.51929 z" />
      <path
         id="path883"
         style="font-style:normal;font-variant:normal;font-weight:normal;font-stretch:normal;font-size:22.5778px;line-height:1.25;font-family:MonteCarlo;-inkscape-font-specification:MonteCarlo;white-space:pre;shape-inside:url(#rect835);fill:#000000;fill-opacity:1;stroke:none"
         d="m 59.603664,43.108947 q -0.767645,0 -1.083734,-0.451556 -0.293511,-0.451556 -0.293511,-0.970845 0,-0.225778 0.04516,-0.428979 0.04516,-0.225778 0.112889,-0.428978 0.383823,-0.993423 1.061157,-1.896535 0.677334,-0.903112 1.12889,-1.873958 0.158044,-0.293511 0.158044,-0.541867 0,-0.270933 -0.158044,-0.4064 -0.158045,-0.135467 -0.338667,-0.135467 -0.428978,0 -0.948268,0.383823 -0.496711,0.361244 -0.970845,0.925689 -0.428978,0.496712 -0.880534,1.151468 -0.451556,0.632179 -0.857957,1.354668 -0.383822,0.654757 -0.790223,1.377246 -0.4064,0.699912 -0.654756,1.196624 -0.180623,0.383822 -0.383823,0.496711 -0.2032,0.112889 -0.383822,0.112889 -0.09031,0 -0.180623,-0.02258 -0.09031,0 -0.158044,0 0.2032,-0.767645 0.745067,-2.099735 0.564445,-1.354668 1.33209,-3.206048 0.428979,-0.993423 1.016001,-2.280358 0.587023,-1.309512 1.332091,-2.66418 0.745067,-1.377246 1.648179,-2.596447 0.903112,-1.241779 1.941691,-2.167469 1.061157,-0.92569 2.235202,-1.286935 0.135467,-0.02258 0.270934,-0.04516 0.135467,-0.02258 0.270933,-0.02258 0.338667,0 0.587023,0.158045 0.316089,0.2032 0.316089,0.722489 0,0.361245 -0.2032,0.880534 -0.361245,0.903112 -1.196623,1.941691 -0.812801,1.038579 -1.919113,2.122314 -1.377246,1.33209 -2.641603,2.348091 -1.264357,1.016001 -2.032002,1.603024 -0.451556,0.970845 -0.745067,1.693335 -0.293512,0.699912 -0.383823,1.016001 0.361245,-0.541867 0.812801,-1.174046 0.474134,-0.654756 0.835378,-1.016001 0.51929,-0.519289 1.038579,-0.880534 0.51929,-0.361245 1.016001,-0.406401 0.767645,-0.06773 1.106312,0.203201 0.338667,0.248355 0.338667,0.745067 0,0.496712 -0.270933,1.106312 -0.293512,0.699912 -0.699912,1.399824 -0.4064,0.699912 -0.745067,1.354668 -0.09031,0.180622 -0.338667,0.699912 -0.225778,0.496711 -0.293512,0.948267 0,0.02258 -0.02258,0.06773 0,0.04516 0,0.09031 0,0.248356 0.135467,0.383823 0.135467,0.112889 0.316089,0.112889 0.383823,0 0.72249,-0.248356 0.338667,-0.248356 0.587023,-0.541867 0.519289,-0.564445 0.948267,-1.241779 0.428979,-0.677334 0.857957,-1.44498 0.06773,-0.09031 0.135467,-0.09031 0.09031,0 0.09031,0.135467 0,0.112889 -0.04516,0.180622 -0.4064,0.745068 -0.880534,1.490135 -0.451556,0.745068 -1.106312,1.399824 -0.293512,0.293511 -0.677334,0.541867 -0.383823,0.225778 -0.857957,0.225778 z m -1.670757,-7.202318 q 1.354668,-0.993424 2.438403,-2.009425 1.083734,-1.016001 2.190046,-2.190046 0.31609,-0.338667 0.812801,-0.903112 0.51929,-0.564445 1.016001,-1.219202 0.496712,-0.654756 0.745068,-1.264356 0.225778,-0.51929 0.225778,-0.880535 0,-0.6096 -0.564445,-0.6096 -0.293512,0 -0.654757,0.180622 -0.361244,0.180623 -0.677334,0.496712 -1.083734,1.016001 -2.122313,2.483558 -1.016001,1.444979 -1.896535,3.002847 -0.857957,1.557869 -1.512713,2.912537 z" />
      <path
         id="path885"
         style="font-style:normal;font-variant:normal;font-weight:normal;font-stretch:normal;font-size:22.5778px;line-height:1.25;font-family:MonteCarlo;-inkscape-font-specification:MonteCarlo;white-space:pre;shape-inside:url(#rect835);fill:#000000;fill-opacity:1;stroke:none"
         d="m 67.59797,43.108947 q -0.72249,0 -0.993423,-0.451556 -0.270934,-0.474134 -0.270934,-1.038579 0,-0.112889 0.02258,-0.383822 0.04516,-0.293512 0.09031,-0.541868 -0.316089,0.428979 -0.767645,0.948268 -0.428978,0.519289 -0.880534,0.880534 -0.72249,0.587023 -1.309513,0.587023 -0.564445,0 -0.880534,-0.474134 -0.293511,-0.474134 -0.293511,-1.196623 0,-0.92569 0.4064,-1.873958 0.4064,-0.948267 1.061157,-1.783646 0.677334,-0.857956 1.490135,-1.467557 0.474133,-0.338667 1.151467,-0.541867 0.699912,-0.225778 1.399824,-0.225778 0.790223,0 1.377246,0.248356 0.6096,0.225778 0.835378,0.654756 -0.474133,0.6096 -0.970845,1.512712 -0.496712,0.880535 -0.857956,1.603024 -0.248356,0.496712 -0.541868,1.241779 -0.293511,0.72249 -0.293511,1.241779 0,0.225778 0.112889,0.451556 0.112889,0.225778 0.428978,0.225778 0.361245,0 0.699912,-0.270933 0.338667,-0.270934 0.564445,-0.541867 0.519289,-0.564445 0.948268,-1.241779 0.428978,-0.677334 0.857956,-1.44498 0.06773,-0.09031 0.135467,-0.09031 0.09031,0 0.09031,0.135467 0,0.112889 -0.04516,0.180622 -0.383823,0.745068 -0.857957,1.490135 -0.474134,0.745068 -1.12889,1.399824 -0.316089,0.316089 -0.745067,0.541867 -0.428979,0.225778 -0.835379,0.225778 z m -3.612448,-0.699912 q 0.428978,0 0.92569,-0.451556 0.519289,-0.474134 0.993423,-1.12889 0.496712,-0.677334 0.880534,-1.286934 0.406401,-0.632179 0.632179,-0.970846 0.474133,-0.745067 0.880534,-1.241779 0.4064,-0.496712 1.264357,-0.767645 0.04515,0 0.06773,0 0.04516,-0.02258 0.09031,-0.02258 -0.2032,-0.316089 -0.677334,-0.474134 -0.474134,-0.158044 -0.92569,-0.158044 -0.699911,0 -1.354668,0.383822 -0.654756,0.383823 -1.196623,0.970846 -0.519289,0.6096 -1.016001,1.33209 -0.496712,0.72249 -0.812801,1.467557 -0.293511,0.745067 -0.293511,1.422401 0,0.361245 0.112889,0.654757 0.135466,0.270933 0.428978,0.270933 z" />
      <path
         id="path887"
         style="font-style:normal;font-variant:normal;font-weight:normal;font-stretch:normal;font-size:22.5778px;line-height:1.25;font-family:MonteCarlo;-inkscape-font-specification:MonteCarlo;white-space:pre;shape-inside:url(#rect835);fill:#000000;fill-opacity:1;stroke:none"
         d="m 73.026165,43.131525 q -1.309513,0 -1.85138,-0.677334 -0.270933,-0.293512 -0.383822,-0.699912 -0.112889,-0.4064 -0.112889,-0.835379 0,-0.541867 0.135466,-1.083734 0.135467,-0.564445 0.338667,-1.038579 0.31609,-0.745067 0.835379,-1.490135 0.519289,-0.767645 1.241779,-1.286934 0.745067,-0.51929 1.625602,-0.51929 0.587022,0 0.92569,0.293512 0.338667,0.293511 0.338667,0.903112 0,0.699911 -0.428979,1.422401 -0.428978,0.699912 -1.083734,1.174046 -0.654756,0.474134 -1.354668,0.474134 -0.632179,0 -1.106312,-0.451556 -0.135467,0.361244 -0.225778,0.8128 -0.09031,0.428979 -0.09031,0.880535 0,0.699911 0.270934,1.219201 0.293511,0.519289 1.038579,0.519289 0.541867,0 1.038579,-0.270933 0.519289,-0.293512 0.925689,-0.699912 0.451557,-0.474134 0.857957,-1.016001 0.4064,-0.541867 0.790223,-1.264357 0.04516,-0.06773 0.06773,-0.06773 0.09031,0 0.09031,0.2032 0,0.135467 -0.09031,0.293511 -0.338667,0.609601 -0.790223,1.241779 -0.451556,0.609601 -0.92569,1.061157 -0.428978,0.4064 -0.925689,0.654756 -0.496712,0.248356 -1.151468,0.248356 z M 72.25852,38.97721 q 0.158044,0.225778 0.361244,0.338667 0.225778,0.09031 0.451556,0.09031 0.541868,0 1.12889,-0.406401 0.587023,-0.428978 0.948268,-0.993423 0.158045,-0.248356 0.270934,-0.654756 0.135467,-0.406401 0.135467,-0.767645 0,-0.31609 -0.135467,-0.541868 -0.112889,-0.248355 -0.474134,-0.248355 -0.406401,0 -0.970846,0.496711 -0.541867,0.496712 -1.038578,1.286935 -0.158045,0.270933 -0.361245,0.632178 -0.180623,0.361245 -0.316089,0.767647 z" />
      <path
         id="path889"
         style="font-style:normal;font-variant:normal;font-weight:normal;font-stretch:normal;font-size:22.5778px;line-height:1.25;font-family:MonteCarlo;-inkscape-font-specification:MonteCarlo;white-space:pre;shape-inside:url(#rect835);fill:#000000;fill-opacity:1;stroke:none"
         d="m 77.919199,43.086369 q -0.812801,0 -1.128891,-0.474134 -0.316089,-0.474133 -0.316089,-1.196623 0,-0.745067 0.225778,-1.625602 0.248356,-0.880534 0.564445,-1.715913 0.338667,-0.835378 0.632179,-1.467557 0.316089,-0.632178 0.428978,-0.880534 0.4064,-0.857956 0.993423,-1.941691 0.609601,-1.083734 1.354668,-2.212624 0.767645,-1.12889 1.603024,-2.144891 0.857956,-1.016001 1.761069,-1.761069 0.925689,-0.745067 1.828801,-1.016001 0.248356,-0.06773 0.451556,-0.06773 0.383823,0 0.632179,0.225778 0.270933,0.2032 0.270933,0.72249 0,0.361244 -0.180622,0.903112 -0.293511,0.790223 -0.993423,1.761068 -0.699912,0.948268 -1.64818,1.986847 -0.948267,1.016001 -2.009424,2.009424 -1.038579,0.993423 -2.032002,1.851379 -0.993423,0.857957 -1.761068,1.467557 -0.203201,0.428979 -0.383823,0.835379 -0.158045,0.406401 -0.293511,0.790223 -0.06773,0.2032 -0.203201,0.609601 -0.135466,0.4064 -0.248356,0.903112 -0.112889,0.496711 -0.112889,0.948267 0,0.451556 0.180623,0.790223 0.180622,0.31609 0.654756,0.31609 0.383823,0 0.699912,-0.248356 0.338667,-0.248356 0.609601,-0.541867 0.948267,-1.083735 1.693335,-2.506136 0.09031,-0.158045 0.135466,-0.158045 0.04516,0 0.04516,0.135467 0,0.2032 -0.09031,0.428978 -0.428978,0.790223 -0.790223,1.33209 -0.338667,0.541868 -0.993423,1.196624 -0.293512,0.293511 -0.699912,0.519289 -0.383823,0.225778 -0.880534,0.225778 z m 0.925689,-6.096006 q 0.699912,-0.609601 1.625602,-1.444979 0.92569,-0.857957 1.896535,-1.828802 0.970846,-0.970845 1.828802,-1.941691 0.880534,-0.970845 1.512713,-1.828802 0.654756,-0.857956 0.880534,-1.490135 0.2032,-0.587022 0.2032,-0.903112 0,-0.587022 -0.519289,-0.587022 -0.293512,0 -0.699912,0.225778 -0.4064,0.2032 -0.745067,0.541867 -0.564445,0.541867 -1.332091,1.557868 -0.745067,0.993423 -1.580446,2.280358 -0.835378,1.286935 -1.648179,2.686758 -0.790223,1.399824 -1.422402,2.731914 z" />
      <path
         id="path891"
         style="font-style:normal;font-variant:normal;font-weight:normal;font-stretch:normal;font-size:22.5778px;line-height:1.25;font-family:MonteCarlo;-inkscape-font-specification:MonteCarlo;white-space:pre;shape-inside:url(#rect835);fill:#000000;fill-opacity:1;stroke:none"
         d="m 87.146812,44.937749 q -0.270933,-0.135467 -0.428978,-0.383823 -0.135467,-0.248355 -0.135467,-0.496711 0,-0.248356 0.135467,-0.406401 0.06773,-0.09031 0.158045,-0.112889 0.112889,0 0.06773,0.112889 -0.06773,0.338667 0.316089,0.632179 0.383823,0.293511 0.699912,0.383822 0.338667,0.06773 0.677334,0.06773 0.699912,0 1.241779,-0.2032 0.812801,-0.270934 1.603024,-1.128891 0.812801,-0.835378 1.512713,-1.873957 0.587023,-0.903112 1.151468,-2.009424 0.564445,-1.106312 1.12889,-2.280358 -0.451556,-0.04516 -1.106313,-0.09031 -0.654756,-0.04516 -1.354668,-0.04516 -0.903112,0 -1.73849,0.158045 -0.835379,0.135466 -1.196624,0.587022 -0.180622,0.248356 -0.180622,0.541868 0,0.06773 0,0.135467 0.02258,0.06773 0.04516,0.135466 0,0.02258 0,0.04516 0.02258,0 0.02258,0.02258 0,0.04516 -0.06773,0.04516 -0.112889,0 -0.135467,-0.112889 -0.02258,-0.06773 -0.04515,-0.180622 -0.02258,-0.112889 -0.02258,-0.225778 0,-0.316089 0.135467,-0.609601 0.361244,-0.722489 1.12889,-0.993423 0.767645,-0.270934 1.670757,-0.270934 0.835378,0 1.670757,0.135467 0.835379,0.135467 1.399824,0.248356 0.745067,-1.444979 1.53529,-2.844803 0.812801,-1.399823 1.761069,-2.506136 0.948267,-1.106312 2.099732,-1.693335 -1.106309,-0.135467 -2.280355,-0.361245 -1.151468,-0.248355 -1.941691,-0.383822 -0.496711,-0.09031 -1.12889,-0.112889 -0.632178,-0.04516 -1.33209,-0.04516 -1.241779,0 -2.483558,0.158045 -1.241779,0.135467 -1.986846,0.474134 -1.309513,0.587022 -2.257781,1.625601 -0.948267,1.016001 -0.948267,2.551292 0,0.632178 0.2032,1.083734 0.225778,0.428978 0.564445,0.654756 0.383823,0.225778 0.790223,0.225778 0.496712,0 1.016001,-0.293511 0.51929,-0.316089 0.903112,-0.903112 0.180623,-0.293511 0.338667,-0.857956 0.180623,-0.564445 0.180623,-1.151468 0,-0.316089 -0.06773,-0.609601 -0.04516,-0.293511 -0.2032,-0.519289 -0.04516,-0.09031 -0.04516,-0.09031 0,-0.06773 0.06773,-0.06773 0.09031,0 0.158044,0.112889 0.112889,0.158045 0.225778,0.496712 0.135467,0.316089 0.180623,0.587023 0.02258,0.135466 0.02258,0.270933 0.02258,0.135467 0.02258,0.270934 0,0.451556 -0.112889,0.92569 -0.112889,0.451556 -0.361244,0.835378 -0.361245,0.609601 -0.970846,0.92569 -0.6096,0.293511 -1.264357,0.293511 -0.519289,0 -0.993423,-0.2032 -0.699923,-0.338672 -1.03859,-0.97085 -0.316089,-0.632179 -0.316089,-1.377246 0,-0.496712 0.112889,-0.993423 0.135467,-0.51929 0.361245,-0.993424 0.383822,-0.835378 1.061156,-1.467557 0.677334,-0.632178 1.354669,-0.993423 1.12889,-0.6096 2.25778,-0.857956 1.151467,-0.248356 2.325513,-0.248356 0.970845,0 1.964269,0.135467 0.993423,0.135467 2.009424,0.383822 1.151468,0.270934 2.370669,0.609601 0.451556,0.135467 1.083736,0.293511 0.63218,0.158045 1.26436,0.225778 0.0903,0 0.15804,0 0.0677,-0.02258 0.15804,-0.02258 0.22578,0 0.49672,0.06773 0.42897,-0.02258 0.83537,-0.158045 0.40641,-0.135466 0.65476,-0.496711 0.0903,-0.135467 0.0903,-0.248356 0,-0.112889 -0.0226,-0.2032 -0.0226,-0.112889 0.0452,-0.180623 0.0452,-0.04516 0.11289,-0.04516 0.11289,0 0.18062,0.135467 0.0226,0.06773 0.0226,0.225778 0,0.06773 0,0.158044 0,0.06773 -0.0452,0.135467 -0.15804,0.451556 -0.6096,0.72249 -0.45155,0.248355 -0.90311,0.316089 -0.18062,0.02258 -0.4064,0.04515 -0.2032,0 -0.42898,0 -0.18062,0 -0.38382,0 -0.2032,0 -0.4064,-0.02258 -0.74507,0.338667 -1.557869,1.286934 -1.106312,1.309513 -1.896535,2.844803 -0.767645,1.512713 -1.444979,3.070581 0.316089,0.04516 0.632178,0.09031 0.316089,0.02258 0.609601,0.02258 0.6096,0 1.083734,-0.158045 0.04516,-0.158044 0.158045,-0.428978 0.135466,-0.293511 0.248355,-0.428978 0.361245,-0.496712 0.72249,-0.496712 0.29351,0 0.29351,0.293512 0,0.180622 -0.2032,0.496711 -0.15804,0.203201 -0.383821,0.383823 -0.203201,0.180622 -0.428979,0.270934 -0.158044,0.316089 -0.225778,0.677334 -0.06773,0.361244 -0.06773,0.677334 0,0.496711 0.158045,0.790223 0.02258,0.02258 0.02258,0.09031 0,0.06773 -0.09031,0.09031 -0.06773,0.02258 -0.135467,-0.04516 -0.293511,-0.361245 -0.293511,-1.061157 0,-0.564445 0.2032,-1.106312 -0.496711,0.2032 -1.399823,0.2032 -0.248356,0 -0.51929,0 -0.248356,-0.02258 -0.541867,-0.04516 -0.496712,1.106313 -1.061157,2.212625 -0.541867,1.106312 -1.264357,2.099735 -0.790223,1.106312 -1.783646,1.986847 -0.993423,0.880534 -2.25778,1.33209 -0.699912,0.248356 -1.670757,0.248356 -0.383823,0 -0.72249,-0.06773 -0.338667,-0.04516 -0.587023,-0.180622 z" />
      <path
         id="path893"
         style="font-style:normal;font-variant:normal;font-weight:normal;font-stretch:normal;font-size:22.5778px;line-height:1.25;font-family:MonteCarlo;-inkscape-font-specification:MonteCarlo;white-space:pre;shape-inside:url(#rect835);fill:#000000;fill-opacity:1;stroke:none"
         d="m 102.22667,43.086369 q -0.63218,0 -0.92569,-0.4064 -0.29351,-0.428978 -0.29351,-1.038579 0,-0.180622 0.0226,-0.361245 0.0451,-0.2032 0.0903,-0.4064 0.24836,-0.903112 0.76765,-2.009424 0.54186,-1.128891 1.03857,-2.009425 0.29352,-0.496711 0.54187,-0.699912 0.24836,-0.225778 0.54187,-0.316089 0.29351,-0.112889 0.69991,-0.248356 0.11289,-0.04516 0.22578,-0.06773 0.11289,-0.02258 0.24835,-0.04516 -0.45155,0.451556 -0.92569,1.083735 -0.45155,0.632178 -0.99342,1.738491 -0.29351,0.587022 -0.58702,1.309512 -0.27094,0.72249 -0.47414,1.354668 -0.2032,0.632178 -0.22577,0.993423 -0.0226,0.428978 0.11289,0.609601 0.13546,0.180622 0.36124,0.180622 0.38382,0 0.72249,-0.270933 0.36124,-0.270934 0.63218,-0.564445 0.49671,-0.564445 0.92569,-1.241779 0.45155,-0.677334 0.88053,-1.44498 0.0677,-0.09031 0.11289,-0.09031 0.0903,0 0.0903,0.135467 0,0.112889 -0.0452,0.180622 -0.4064,0.745068 -0.85796,1.490135 -0.45156,0.745068 -1.10631,1.399824 -0.29351,0.293511 -0.69991,0.519289 -0.38383,0.225778 -0.88054,0.225778 z m 2.75449,-8.873075 q -0.24835,0 -0.42897,-0.180623 -0.15805,-0.180622 -0.15805,-0.428978 0,-0.316089 0.24836,-0.564445 0.27093,-0.248356 0.58702,-0.293511 0.24836,0 0.4064,0.180622 0.18062,0.158045 0.18062,0.428978 0,0.293512 -0.24835,0.587023 -0.24836,0.270934 -0.58703,0.270934 z" />
      <path
         id="path895"
         style="font-style:normal;font-variant:normal;font-weight:normal;font-stretch:normal;font-size:22.5778px;line-height:1.25;font-family:MonteCarlo;-inkscape-font-specification:MonteCarlo;white-space:pre;shape-inside:url(#rect835);fill:#000000;fill-opacity:1;stroke:none"
         d="m 106.37816,43.108947 q -0.56444,0 -1.016,-0.316089 -0.42898,-0.338667 -0.42898,-1.083735 0,-0.790223 0.38382,-1.73849 0.38383,-0.948268 0.72249,-1.693335 0.18063,-0.361245 0.47414,-0.970846 0.31609,-0.632178 0.67733,-1.241779 h -1.06116 q -0.0677,0 -0.0677,-0.112889 0,-0.09031 0.0677,-0.180622 0.0677,-0.112889 0.15805,-0.112889 0.63218,0 0.94827,-0.112889 0.31609,-0.112889 0.54186,-0.316089 0.36125,-0.31609 0.69992,-0.812801 0.36124,-0.496712 0.69991,-0.857957 0.24835,-0.316089 0.6096,-0.474133 0.38382,-0.158045 0.49671,-0.112889 -0.11289,0.158044 -0.36125,0.541867 -0.24835,0.383822 -0.51928,0.835378 -0.27094,0.451556 -0.49672,0.835379 -0.22577,0.383823 -0.29351,0.519289 h 1.49014 q 0.0677,0 0.0677,0.04516 0,0.09031 -0.11289,0.2032 -0.0903,0.112889 -0.18062,0.112889 h -1.46756 q -0.4064,0.699912 -0.97084,1.828802 -0.54187,1.106312 -0.97085,2.144891 -0.0903,0.2032 -0.31609,0.812801 -0.2032,0.609601 -0.2032,1.12889 0,0.338667 0.13547,0.564445 0.15804,0.225778 0.51929,0.225778 0.38382,0 0.83538,-0.270934 0.45155,-0.293511 0.69991,-0.587022 0.51929,-0.564445 0.94827,-1.241779 0.42897,-0.677334 0.85795,-1.44498 0.0677,-0.09031 0.13547,-0.09031 0.0903,0 0.0903,0.135467 0,0.112889 -0.0452,0.180622 -0.4064,0.745068 -0.88053,1.490135 -0.45156,0.745068 -1.10631,1.399824 -0.29351,0.293511 -0.79022,0.541867 -0.49672,0.225778 -0.97085,0.225778 z" />
      <path
         id="path897"
         style="font-style:normal;font-variant:normal;font-weight:normal;font-stretch:normal;font-size:22.5778px;line-height:1.25;font-family:MonteCarlo;-inkscape-font-specification:MonteCarlo;white-space:pre;shape-inside:url(#rect835);fill:#000000;fill-opacity:1;stroke:none"
         d="m 109.70627,49.362998 q -0.15804,0.02258 -0.29351,0.02258 -0.13547,0.02258 -0.27093,0.02258 -0.76765,0 -1.15147,-0.4064 -0.4064,-0.4064 -0.4064,-0.970845 0,-0.474134 0.29351,-0.993424 0.27093,-0.496711 0.83538,-0.857956 1.10631,-0.72249 2.50613,-1.33209 1.4224,-0.587023 2.77707,-1.354668 0.0677,-0.180623 0.13547,-0.406401 0.0903,-0.2032 0.13547,-0.428978 0.0677,-0.316089 0.0677,-0.564445 0,-0.541867 -0.29351,-0.790223 -0.27094,-0.248356 -0.74507,-0.248356 -0.51929,0 -1.17405,0.270934 -0.18062,0.06773 -0.4064,0.158044 -0.22577,0.09031 -0.47413,0.203201 -0.22578,0.451556 -0.67733,0.8128 -0.42898,0.361245 -0.72249,0.406401 -0.0677,0.02258 -0.2032,0.02258 -0.42898,0 -0.42898,-0.383823 0,-0.383823 0.4064,-0.609601 0.6096,-0.361244 1.15147,-0.767645 0.56444,-0.4064 1.15146,-0.970845 0.60961,-0.587023 1.37725,-1.444979 0.47413,-0.541868 0.97085,-1.038579 0.51929,-0.51929 1.03857,-0.993424 -0.15804,-0.04516 -0.49671,-0.06773 -0.33866,-0.04516 -0.69991,-0.09031 -0.33867,-0.04516 -0.54187,-0.06773 -0.13546,-0.02258 -0.27093,-0.02258 -0.11289,0 -0.22578,0 -0.49671,0 -0.92569,0.180622 -0.4064,0.158045 -0.76764,0.654756 -0.29351,0.406401 -0.67734,1.083735 -0.36124,0.654756 -0.92569,1.648179 -0.0677,0.135467 -0.13546,0.135467 -0.0903,0 -0.0903,-0.158045 0,-0.112889 0.0903,-0.270933 0.45155,-0.767645 0.72249,-1.354668 0.27093,-0.587023 0.67733,-1.286935 0.31609,-0.564445 0.63218,-0.903112 0.33867,-0.361245 0.88053,-0.496712 0.18063,-0.04516 0.36125,-0.06773 0.2032,-0.02258 0.4064,-0.02258 0.45155,0 0.88053,0.04516 0.45156,0.04516 0.8128,0.04516 0.18063,0 0.56445,0 0.4064,-0.02258 0.79022,-0.04516 0.38382,-0.04516 0.51929,-0.112889 0.18062,0.06773 0.18062,0.316089 0,0.293511 -0.29351,0.654756 -0.29351,0.338667 -0.88053,0.270934 -0.56445,0.361245 -1.24178,1.038579 -0.67734,0.677334 -1.15147,1.174045 -0.18062,0.203201 -0.56444,0.564445 -0.38383,0.361245 -0.81281,0.790223 -0.4064,0.428979 -0.74506,0.835379 0,0.02258 -0.0226,0.04516 0,0.02258 0,0.06773 0.42898,-0.270934 0.99342,-0.451556 0.45156,-0.135467 0.79023,-0.180622 0.36124,-0.06773 0.65475,-0.06773 0.76765,0 1.06116,0.383823 0.31609,0.383822 0.31609,0.970845 0,0.316089 -0.0677,0.699912 0.74507,-0.677334 1.39983,-1.490135 0.65475,-0.835378 1.08373,-1.603024 0.2032,-0.316089 0.36125,-0.316089 0.0452,0 0.0452,0.06773 0,0.09031 -0.0903,0.248355 -0.4064,0.72249 -0.88053,1.422402 -0.47414,0.677334 -1.03858,1.264357 -0.4064,0.4064 -0.97085,0.857956 -0.0677,0.248356 -0.15804,0.519289 -0.0903,0.270934 -0.2032,0.541868 -0.51929,1.286934 -1.26436,2.393247 -0.72249,1.106312 -1.64818,1.828801 -0.90311,0.745068 -2.032,0.970846 z m -0.13547,-0.383823 q 1.15147,-0.338667 1.91912,-1.174045 0.79022,-0.812801 1.35466,-1.873958 0.56445,-1.038579 1.03858,-2.032002 -0.54186,0.361245 -1.46755,0.767645 -0.90312,0.428979 -1.85138,0.857957 -0.94827,0.451556 -1.64818,0.92569 -0.47414,0.316089 -0.69991,0.745067 -0.22578,0.451556 -0.22578,0.857956 0,0.428979 0.24835,0.72249 0.27094,0.293511 0.76765,0.293511 0.11289,0 0.24835,-0.02258 0.15805,-0.02258 0.31609,-0.06773 z" />
      <path
         id="path899"
         style="font-style:normal;font-variant:normal;font-weight:normal;font-stretch:normal;font-size:22.5778px;line-height:1.25;font-family:MonteCarlo;-inkscape-font-specification:MonteCarlo;white-space:pre;shape-inside:url(#rect835);fill:#000000;fill-opacity:1;stroke:none"
         d="m 116.90083,49.114642 q -0.36125,0.09031 -0.72249,0.09031 -0.67734,0 -1.01601,-0.338667 -0.33866,-0.316089 -0.33866,-0.790223 0,-0.4064 0.27093,-0.880534 0.27094,-0.451556 0.8128,-0.812801 0.69991,-0.474134 1.26436,-0.767645 0.58702,-0.270934 1.26436,-0.564445 0.67733,-0.270934 1.69333,-0.745067 0.36125,-0.72249 0.69991,-1.64818 0.33867,-0.92569 0.65476,-1.828802 0.33867,-0.903112 0.63218,-1.557868 -0.0903,0.09031 -0.36125,0.474134 -0.27093,0.383822 -0.4064,0.587023 -0.33866,0.451556 -0.83538,1.106312 -0.49671,0.632178 -1.06115,1.083734 -0.72249,0.587023 -1.30952,0.587023 -0.56444,0 -0.88053,-0.474134 -0.29351,-0.474134 -0.29351,-1.196623 0,-0.496712 0.13547,-0.993423 0.69991,-2.596448 2.79964,-4.131738 0.42898,-0.316089 1.06116,-0.496712 0.63218,-0.2032 1.26436,-0.2032 0.88053,0 1.53529,0.383823 l 0.0677,-0.06773 q 0.51929,-0.767645 1.03858,-1.286934 0.51929,-0.51929 1.24178,-0.677334 -0.76765,0.835378 -1.46756,2.122313 -0.69991,1.264357 -1.28693,2.686758 -0.56445,1.422402 -1.03858,2.709336 -0.47414,1.264357 -0.8128,2.122314 1.24178,-0.632179 2.2352,-1.693335 1.016,-1.083735 1.71591,-2.348092 0.15805,-0.316089 0.33867,-0.316089 0.0451,0 0.0451,0.06773 0,0.09031 -0.0903,0.248355 -0.4064,0.72249 -0.88053,1.422402 -0.45156,0.677334 -1.03858,1.264357 -0.49671,0.541867 -1.12889,0.993423 -0.6096,0.451556 -1.35467,0.790223 -0.54186,1.264357 -1.15147,2.325513 -0.6096,1.061157 -1.39982,1.783647 -0.79022,0.722489 -1.89653,0.970845 z m 1.71591,-6.705607 q 0.45155,0 0.94827,-0.451556 0.49671,-0.474134 0.99342,-1.12889 0.49671,-0.677334 0.88053,-1.286934 0.4064,-0.632179 0.6096,-0.970846 0.33867,-0.519289 0.72249,-1.106312 0.38383,-0.587023 0.88054,-1.286935 -0.42898,-0.225778 -0.92569,-0.225778 -0.65476,0 -1.30951,0.361245 -0.63218,0.361245 -1.15147,0.948268 -0.76765,0.835378 -1.28694,1.806224 -0.51929,0.948267 -0.72249,1.670757 -0.11289,0.4064 -0.11289,0.835379 0,0.338667 0.0903,0.587022 0.11288,0.248356 0.38382,0.248356 z m -1.85138,6.231473 q 0.79022,-0.248356 1.37724,-0.880534 0.58703,-0.609601 1.01601,-1.422401 0.45155,-0.790223 0.76764,-1.603024 -0.69991,0.361245 -1.80622,0.767645 -1.08374,0.428978 -2.05458,1.174046 -0.42898,0.338667 -0.63218,0.699911 -0.22578,0.361245 -0.22578,0.677334 0,0.293512 0.2032,0.496712 0.2032,0.2032 0.63218,0.2032 0.15804,0 0.33867,-0.02258 0.18062,-0.02258 0.38382,-0.09031 z" />
      <path
         id="path901"
         style="font-style:normal;font-variant:normal;font-weight:normal;font-stretch:normal;font-size:22.5778px;line-height:1.25;font-family:MonteCarlo;-inkscape-font-specification:MonteCarlo;white-space:pre;shape-inside:url(#rect835);fill:#000000;fill-opacity:1;stroke:none"
         d="m 127.66268,43.131525 q -1.30951,0 -1.85138,-0.677334 -0.27093,-0.293512 -0.38382,-0.699912 -0.11289,-0.4064 -0.11289,-0.835379 0,-0.541867 0.13547,-1.083734 0.13546,-0.564445 0.33866,-1.038579 0.31609,-0.745067 0.83538,-1.490135 0.51929,-0.767645 1.24178,-1.286934 0.74507,-0.51929 1.6256,-0.51929 0.58703,0 0.92569,0.293512 0.33867,0.293511 0.33867,0.903112 0,0.699911 -0.42898,1.422401 -0.42898,0.699912 -1.08373,1.174046 -0.65476,0.474134 -1.35467,0.474134 -0.63218,0 -1.10631,-0.451556 -0.13547,0.361244 -0.22578,0.8128 -0.0903,0.428979 -0.0903,0.880535 0,0.699911 0.27093,1.219201 0.29351,0.519289 1.03858,0.519289 0.54187,0 1.03858,-0.270933 0.51929,-0.293512 0.92569,-0.699912 0.45156,-0.474134 0.85796,-1.016001 0.4064,-0.541867 0.79022,-1.264357 0.0451,-0.06773 0.0677,-0.06773 0.0903,0 0.0903,0.2032 0,0.135467 -0.0903,0.293511 -0.33867,0.609601 -0.79022,1.241779 -0.45156,0.609601 -0.92569,1.061157 -0.42898,0.4064 -0.92569,0.654756 -0.49671,0.248356 -1.15147,0.248356 z m -0.76764,-4.154315 q 0.15804,0.225778 0.36124,0.338667 0.22578,0.09031 0.45156,0.09031 0.54186,0 1.12889,-0.406401 0.58702,-0.428978 0.94826,-0.993423 0.15805,-0.248356 0.27094,-0.654756 0.13547,-0.406401 0.13547,-0.767645 0,-0.31609 -0.13547,-0.541868 -0.11289,-0.248355 -0.47414,-0.248355 -0.4064,0 -0.97084,0.496711 -0.54187,0.496712 -1.03858,1.286935 -0.15804,0.270933 -0.36124,0.632178 -0.18063,0.361245 -0.31609,0.767647 z" />
      <path
         id="path903"
         style="font-style:normal;font-variant:normal;font-weight:normal;font-stretch:normal;font-size:22.5778px;line-height:1.25;font-family:MonteCarlo;-inkscape-font-specification:MonteCarlo;white-space:pre;shape-inside:url(#rect835);fill:#000000;fill-opacity:1;stroke:none"
         d="m 135.78434,42.544502 q -0.38382,0.316089 -0.76764,0.451556 -0.36125,0.158045 -0.67734,0.158045 -0.56444,0 -0.94827,-0.383823 -0.36124,-0.4064 -0.36124,-1.061157 0,-0.383822 0.18062,-0.925689 0.29351,-0.812801 0.88054,-1.557869 0.58702,-0.745067 1.12889,-1.512712 0.33866,-0.451556 0.33866,-0.880535 0,-0.225778 -0.13546,-0.383822 -0.11289,-0.158045 -0.42898,-0.180623 -0.18062,-0.04516 -0.4064,-0.04516 -0.22578,0 -0.45156,0 h -0.63218 q -0.13546,0 -0.24835,0 -0.11289,0 -0.2032,-0.02258 -0.0903,0.564445 -0.38383,1.264357 -0.27093,0.699912 -0.63217,1.399824 -0.36125,0.699911 -0.69992,1.264356 -0.0903,0.135467 -0.15804,0.135467 -0.0677,0 -0.0677,-0.135467 0,-0.158044 0.0677,-0.248355 0.47413,-0.92569 0.90311,-1.806225 0.45156,-0.903112 0.6096,-1.873957 -0.51929,-0.293511 -0.69991,-1.016001 -0.0226,-0.112889 -0.0452,-0.2032 0,-0.112889 0,-0.2032 0,-0.406401 0.15805,-0.677334 0.18062,-0.293512 0.4064,-0.293512 0.31609,0 0.51929,0.609601 0.0451,0.158044 0.0677,0.361245 0.0226,0.180622 0.0226,0.361244 0,0.203201 -0.0226,0.383823 0,0.158045 -0.0226,0.270934 0.15805,0.04516 0.4064,0.06773 0.27094,0.02258 0.58703,0.02258 0.47413,0 0.99342,-0.02258 0.51929,-0.04516 0.88054,-0.04516 0.42897,0 0.58702,0.180623 0.15804,0.180622 0.15804,0.451556 0,0.338667 -0.18062,0.745067 -0.15804,0.383823 -0.31609,0.654756 -0.29351,0.541868 -0.56444,0.970846 -0.24836,0.4064 -0.56445,0.880534 -0.47413,0.72249 -0.69991,1.33209 -0.2032,0.587023 -0.2032,0.993424 0,0.699911 0.51929,0.699911 0.42898,0 1.10631,-0.6096 0.42898,-0.383823 0.79022,-0.903112 0.38383,-0.541867 0.67734,-1.083735 0.31609,-0.564445 0.51929,-0.925689 0.0452,-0.06773 0.0903,-0.06773 0.0903,0 0.0903,0.180623 0,0.135466 -0.0677,0.248355 -0.38383,0.699912 -0.88054,1.535291 -0.49671,0.835378 -1.2192,1.444979 z" />
      <path
         id="path905"
         style="font-style:normal;font-variant:normal;font-weight:normal;font-stretch:normal;font-size:22.5778px;line-height:1.25;font-family:MonteCarlo;-inkscape-font-specification:MonteCarlo;white-space:pre;shape-inside:url(#rect835);fill:#000000;fill-opacity:1;stroke:none"
         d="m 142.43103,43.108947 q -0.72249,0 -0.99342,-0.451556 -0.27094,-0.474134 -0.27094,-1.038579 0,-0.112889 0.0226,-0.383822 0.0452,-0.293512 0.0903,-0.541868 -0.31609,0.428979 -0.76764,0.948268 -0.42898,0.519289 -0.88054,0.880534 -0.72249,0.587023 -1.30951,0.587023 -0.56444,0 -0.88053,-0.474134 -0.29351,-0.474134 -0.29351,-1.196623 0,-0.92569 0.4064,-1.873958 0.4064,-0.948267 1.06115,-1.783646 0.67734,-0.857956 1.49014,-1.467557 0.47413,-0.338667 1.15147,-0.541867 0.69991,-0.225778 1.39982,-0.225778 0.79022,0 1.37725,0.248356 0.6096,0.225778 0.83537,0.654756 -0.47413,0.6096 -0.97084,1.512712 -0.49671,0.880535 -0.85796,1.603024 -0.24835,0.496712 -0.54187,1.241779 -0.29351,0.72249 -0.29351,1.241779 0,0.225778 0.11289,0.451556 0.11289,0.225778 0.42898,0.225778 0.36125,0 0.69991,-0.270933 0.33867,-0.270934 0.56445,-0.541867 0.51929,-0.564445 0.94826,-1.241779 0.42898,-0.677334 0.85796,-1.44498 0.0677,-0.09031 0.13547,-0.09031 0.0903,0 0.0903,0.135467 0,0.112889 -0.0452,0.180622 -0.38382,0.745068 -0.85795,1.490135 -0.47414,0.745068 -1.12889,1.399824 -0.31609,0.316089 -0.74507,0.541867 -0.42898,0.225778 -0.83538,0.225778 z m -3.61245,-0.699912 q 0.42898,0 0.92569,-0.451556 0.51929,-0.474134 0.99343,-1.12889 0.49671,-0.677334 0.88053,-1.286934 0.4064,-0.632179 0.63218,-0.970846 0.47413,-0.745067 0.88053,-1.241779 0.4064,-0.496712 1.26436,-0.767645 0.0452,0 0.0677,0 0.0452,-0.02258 0.0903,-0.02258 -0.2032,-0.316089 -0.67733,-0.474134 -0.47413,-0.158044 -0.92569,-0.158044 -0.69991,0 -1.35467,0.383822 -0.65475,0.383823 -1.19662,0.970846 -0.51929,0.6096 -1.016,1.33209 -0.49671,0.72249 -0.8128,1.467557 -0.29351,0.745067 -0.29351,1.422401 0,0.361245 0.11288,0.654757 0.13547,0.270933 0.42898,0.270933 z" />
      <path
         id="path907"
         style="font-style:normal;font-variant:normal;font-weight:normal;font-stretch:normal;font-size:22.5778px;line-height:1.25;font-family:MonteCarlo;-inkscape-font-specification:MonteCarlo;white-space:pre;shape-inside:url(#rect835);fill:#000000;fill-opacity:1;stroke:none"
         d="m 146.84323,43.086369 q -0.8128,0 -1.12889,-0.474134 -0.31609,-0.474133 -0.31609,-1.196623 0,-0.745067 0.22578,-1.625602 0.24835,-0.880534 0.56444,-1.715913 0.33867,-0.835378 0.63218,-1.467557 0.31609,-0.632178 0.42898,-0.880534 0.4064,-0.857956 0.99342,-1.941691 0.6096,-1.083734 1.35467,-2.212624 0.76765,-1.12889 1.60302,-2.144891 0.85796,-1.016001 1.76107,-1.761069 0.92569,-0.745067 1.8288,-1.016001 0.24836,-0.06773 0.45156,-0.06773 0.38382,0 0.63218,0.225778 0.27093,0.2032 0.27093,0.72249 0,0.361244 -0.18062,0.903112 -0.29351,0.790223 -0.99342,1.761068 -0.69991,0.948268 -1.64818,1.986847 -0.94827,1.016001 -2.00943,2.009424 -1.03858,0.993423 -2.032,1.851379 -0.99342,0.857957 -1.76107,1.467557 -0.2032,0.428979 -0.38382,0.835379 -0.15804,0.406401 -0.29351,0.790223 -0.0677,0.2032 -0.2032,0.609601 -0.13547,0.4064 -0.24836,0.903112 -0.11289,0.496711 -0.11289,0.948267 0,0.451556 0.18063,0.790223 0.18062,0.31609 0.65475,0.31609 0.38383,0 0.69991,-0.248356 0.33867,-0.248356 0.6096,-0.541867 0.94827,-1.083735 1.69334,-2.506136 0.0903,-0.158045 0.13547,-0.158045 0.0452,0 0.0452,0.135467 0,0.2032 -0.0903,0.428978 -0.42898,0.790223 -0.79022,1.33209 -0.33867,0.541868 -0.99343,1.196624 -0.29351,0.293511 -0.69991,0.519289 -0.38382,0.225778 -0.88053,0.225778 z m 0.92569,-6.096006 q 0.69991,-0.609601 1.6256,-1.444979 0.92569,-0.857957 1.89654,-1.828802 0.97084,-0.970845 1.8288,-1.941691 0.88053,-0.970845 1.51271,-1.828802 0.65476,-0.857956 0.88053,-1.490135 0.2032,-0.587022 0.2032,-0.903112 0,-0.587022 -0.51928,-0.587022 -0.29352,0 -0.69992,0.225778 -0.4064,0.2032 -0.74506,0.541867 -0.56445,0.541867 -1.33209,1.557868 -0.74507,0.993423 -1.58045,2.280358 -0.83538,1.286935 -1.64818,2.686758 -0.79022,1.399824 -1.4224,2.731914 z" />
      <path
         id="path909"
         style="font-style:normal;font-variant:normal;font-weight:normal;font-stretch:normal;font-size:22.5778px;line-height:1.25;font-family:MonteCarlo;-inkscape-font-specification:MonteCarlo;white-space:pre;shape-inside:url(#rect835);fill:#000000;fill-opacity:1;stroke:none"
         d="m 155.58789,43.108947 q -0.76765,0 -1.10631,-0.519289 -0.33867,-0.541868 -0.33867,-1.332091 0,-0.790223 0.27093,-1.557868 l 0.22578,-0.654756 -0.83538,1.286935 q -0.31609,0.496711 -0.83538,1.12889 -0.49671,0.6096 -1.06115,1.061156 -0.72249,0.587023 -1.30952,0.587023 -0.56444,0 -0.88053,-0.474134 -0.29351,-0.474134 -0.29351,-1.196623 0,-0.496712 0.13547,-0.993423 0.33866,-1.264357 1.03857,-2.302936 0.69992,-1.061157 1.76107,-1.828802 0.45156,-0.338667 1.15147,-0.541867 0.69991,-0.225778 1.39982,-0.225778 0.27094,0 0.54187,0.04516 0.27093,0.04516 0.49671,0.112889 0.18063,-0.4064 0.4064,-0.903112 0.24836,-0.496711 0.47414,-0.970845 0.24835,-0.496712 0.4064,-0.812801 0.45155,-0.92569 1.12889,-2.212624 0.67733,-1.286935 1.58044,-2.393247 0.69992,-0.880534 1.60303,-1.535291 0.92569,-0.677334 1.78364,-0.677334 0.51929,0 0.76765,0.31609 0.27093,0.316089 0.27093,0.767645 0,0.4064 -0.15804,0.745067 -0.36125,0.812801 -1.15147,1.715913 -0.76765,0.903112 -1.67076,1.761068 -0.88053,0.835379 -1.58044,1.512713 -0.58703,0.564445 -1.03858,0.993423 -0.45156,0.406401 -0.83538,0.812801 -0.38382,0.406401 -0.83538,0.903112 -0.49671,1.12889 -0.92569,2.25778 -0.4064,1.12889 -0.67733,2.099736 -0.24836,0.970845 -0.24836,1.625601 0,0.92569 0.56445,0.993424 0.38382,0 0.72249,-0.248356 0.33866,-0.248356 0.58702,-0.541867 0.51929,-0.564445 0.94827,-1.241779 0.42897,-0.677334 0.85795,-1.44498 0.0677,-0.09031 0.13547,-0.09031 0.0903,0 0.0903,0.135467 0,0.112889 -0.0452,0.180622 -0.4064,0.745068 -0.88053,1.490135 -0.45156,0.745068 -1.10631,1.399824 -0.29351,0.293511 -0.67734,0.541867 -0.38382,0.225778 -0.85795,0.225778 z m 1.87396,-8.173164 q 0.51928,-0.587023 0.97084,-1.038579 0.45156,-0.474133 1.10631,-1.151467 0.63218,-0.632179 1.44498,-1.490135 0.83538,-0.857957 1.55787,-1.738491 0.74507,-0.880534 1.08374,-1.557868 0.27093,-0.541867 0.27093,-0.880534 0,-0.564445 -0.56445,-0.564445 -0.69991,0 -1.46755,0.654756 -0.74507,0.632178 -1.46756,1.73849 -0.6096,0.948268 -1.15147,2.077158 -0.54187,1.106312 -0.99342,2.144891 -0.45156,1.038579 -0.79022,1.806224 z m -6.38952,7.473252 q 0.4064,0 0.97084,-0.541867 0.58703,-0.564445 1.19663,-1.377246 0.63218,-0.835378 1.15146,-1.625601 0.15805,-0.225778 0.4064,-0.745068 0.27094,-0.519289 0.56445,-1.106312 0.29351,-0.609601 0.49671,-1.061157 -0.13547,-0.04516 -0.27093,-0.04516 -0.11289,0 -0.24836,0 -0.69991,0 -1.39982,0.383822 -0.67734,0.361245 -1.2192,0.970846 -0.76765,0.835378 -1.28694,1.806224 -0.51929,0.948267 -0.72249,1.670757 -0.11289,0.4064 -0.11289,0.835379 0,0.338667 0.0903,0.587022 0.11288,0.248356 0.38382,0.248356 z" />
    </g>
  </g>
</svg>
